<?xml version="1.0" standalone="no"?>
<!DOCTYPE svg PUBLIC "-//W3C//DTD SVG 20010904//EN"
 "http://www.w3.org/TR/2001/REC-SVG-20010904/DTD/svg10.dtd">
<svg version="1.0" xmlns="http://www.w3.org/2000/svg"
 width="353.000000pt" height="143.000000pt" viewBox="0 0 353.000000 143.000000"
 preserveAspectRatio="xMidYMid meet">

<g transform="translate(0.000000,143.000000) scale(0.100000,-0.100000)"
fill="#000000" stroke="none">
<path d="M303 1143 c9 -2 25 -2 35 0 9 3 1 5 -18 5 -19 0 -27 -2 -17 -5z"/>
<path d="M395 1130 c11 -5 27 -9 35 -9 13 -1 13 0 0 9 -8 5 -24 9 -35 9 l-20
0 20 -9z"/>
<path d="M312 1102 c-11 -25 -11 -25 4 -10 9 9 15 21 13 27 -2 6 -10 -2 -17
-17z"/>
<path d="M215 1110 c-3 -5 -1 -10 4 -10 6 0 11 5 11 10 0 6 -2 10 -4 10 -3 0
-8 -4 -11 -10z"/>
<path d="M478 1113 c6 -2 18 -2 25 0 6 3 1 5 -13 5 -14 0 -19 -2 -12 -5z"/>
<path d="M195 1080 c-3 -5 -1 -10 4 -10 6 0 11 5 11 10 0 6 -2 10 -4 10 -3 0
-8 -4 -11 -10z"/>
<path d="M600 1086 c0 -2 9 -6 20 -9 11 -3 20 -1 20 4 0 5 -9 9 -20 9 -11 0
-20 -2 -20 -4z"/>
<path d="M501 1054 c0 -11 3 -14 6 -6 3 7 2 16 -1 19 -3 4 -6 -2 -5 -13z"/>
<path d="M316 1045 c4 -8 8 -15 10 -15 2 0 4 7 4 15 0 8 -4 15 -10 15 -5 0 -7
-7 -4 -15z"/>
<path d="M475 1051 c-3 -5 -2 -12 3 -15 5 -3 9 1 9 9 0 17 -3 19 -12 6z"/>
<path d="M788 1043 c7 -3 16 -2 19 1 4 3 -2 6 -13 5 -11 0 -14 -3 -6 -6z"/>
<path d="M840 1030 c8 -5 24 -10 34 -10 26 0 18 6 -19 14 -22 5 -26 4 -15 -4z"/>
<path d="M2997 1023 c-4 -3 -7 -37 -7 -73 0 -49 4 -71 15 -80 13 -11 18 -11
28 0 9 10 9 13 0 17 -9 3 -13 28 -13 74 0 64 -6 80 -23 62z"/>
<path d="M3177 1023 c-4 -3 -7 -17 -7 -30 0 -18 -5 -23 -25 -23 -27 0 -45 -25
-45 -64 0 -30 12 -38 61 -41 l39 -2 0 83 c0 77 -5 95 -23 77z m-7 -103 c0 -32
-26 -43 -36 -15 -9 21 3 45 21 45 10 0 15 -10 15 -30z"/>
<path d="M233 1000 c-11 -16 -10 -18 2 -14 8 4 15 12 15 20 0 19 -3 18 -17 -6z"/>
<path d="M558 1013 c7 -3 16 -2 19 1 4 3 -2 6 -13 5 -11 0 -14 -3 -6 -6z"/>
<path d="M1180 945 c0 -60 3 -75 15 -75 9 0 15 9 15 25 0 19 5 25 21 25 34 0
59 19 59 45 0 30 -35 55 -77 55 l-33 0 0 -75z m76 34 c3 -6 0 -18 -9 -26 -18
-18 -37 -9 -37 18 0 21 34 27 46 8z"/>
<path d="M2196 1013 c-3 -4 -6 -37 -6 -75 0 -54 3 -68 15 -68 11 0 15 12 15
43 l1 42 37 -43 c53 -60 62 -56 62 28 0 54 -3 70 -14 70 -10 0 -16 -14 -18
-42 l-3 -43 -30 42 c-30 43 -48 57 -59 46z"/>
<path d="M2570 1005 c0 -8 7 -15 15 -15 8 0 15 7 15 15 0 8 -7 15 -15 15 -8 0
-15 -7 -15 -15z"/>
<path d="M270 1000 c0 -5 5 -10 11 -10 5 0 7 5 4 10 -3 6 -8 10 -11 10 -2 0
-4 -4 -4 -10z"/>
<path d="M390 990 c6 -11 12 -20 14 -20 2 0 2 9 -1 20 -3 11 -9 20 -15 20 -5
0 -4 -9 2 -20z"/>
<path d="M981 994 c14 -47 -119 -386 -157 -401 -8 -3 -22 1 -31 8 -14 12 -15
12 -9 1 5 -8 36 -26 70 -42 61 -28 97 -58 110 -94 6 -19 6 -19 -12 -3 -24 22
-32 21 -32 -2 0 -24 -23 -43 -44 -35 -20 8 -46 55 -46 82 0 11 -6 25 -14 31
-11 9 -22 0 -56 -44 -74 -97 -235 -225 -281 -225 -10 0 -21 -4 -24 -10 -10
-16 6 -12 162 35 254 79 363 116 378 132 23 22 22 545 -1 563 -8 8 -14 9 -13
4z m-50 -380 c19 -23 -1 -49 -37 -49 -30 0 -42 20 -30 51 7 19 50 18 67 -2z"/>
<path d="M1310 919 c0 -37 4 -49 15 -49 10 0 15 11 15 35 0 28 4 35 20 35 11
0 20 6 20 14 0 9 -12 14 -35 14 l-35 0 0 -49z"/>
<path d="M1402 958 c-22 -22 -14 -66 14 -85 24 -15 29 -15 53 -2 51 28 35 99
-22 99 -18 0 -38 -5 -45 -12z m56 -17 c19 -11 11 -45 -11 -49 -19 -4 -32 20
-23 43 6 17 15 19 34 6z"/>
<path d="M1532 958 c-7 -7 -12 -27 -12 -45 0 -35 26 -58 54 -47 11 4 16 1 16
-10 0 -11 -9 -16 -30 -16 -16 0 -30 -4 -30 -9 0 -13 43 -19 68 -10 20 8 22 16
22 79 l0 70 -38 0 c-21 0 -43 -5 -50 -12z m58 -38 c0 -23 -4 -30 -20 -30 -14
0 -20 7 -20 23 0 27 7 37 27 37 8 0 13 -12 13 -30z"/>
<path d="M1650 919 c0 -37 4 -49 15 -49 10 0 15 11 15 35 0 28 4 35 20 35 11
0 20 6 20 14 0 9 -12 14 -35 14 l-35 0 0 -49z"/>
<path d="M1740 955 c0 -11 6 -14 25 -9 15 4 25 2 25 -5 0 -6 -8 -11 -18 -11
-10 0 -23 -5 -30 -12 -13 -13 -16 -47 -4 -49 4 -1 24 -2 45 -3 l38 -3 -3 51
-3 51 -37 3 c-29 2 -38 0 -38 -13z m50 -55 c0 -5 -7 -10 -15 -10 -8 0 -15 5
-15 10 0 6 7 10 15 10 8 0 15 -4 15 -10z"/>
<path d="M1850 919 c0 -36 4 -49 14 -49 10 0 16 13 18 38 2 20 8 37 13 37 6 0
11 -17 13 -37 4 -51 30 -51 34 -1 4 52 28 56 28 4 0 -30 4 -41 16 -41 12 0 14
10 12 48 l-3 47 -72 1 -73 2 0 -49z"/>
<path d="M2035 960 c-7 -11 0 -13 27 -11 9 1 19 -3 23 -9 4 -6 -4 -10 -18 -10
-33 0 -54 -26 -40 -48 7 -11 24 -17 49 -17 38 0 39 1 42 38 2 21 -2 45 -9 53
-13 16 -65 19 -74 4z m50 -60 c-3 -5 -13 -10 -21 -10 -8 0 -14 5 -14 10 0 6 9
10 21 10 11 0 17 -4 14 -10z"/>
<path d="M2357 963 c-15 -14 -6 -23 18 -17 15 4 25 2 25 -5 0 -6 -8 -11 -18
-11 -23 0 -42 -19 -42 -41 0 -20 13 -25 60 -25 32 1 35 4 38 33 5 46 -13 73
-47 73 -15 0 -31 -3 -34 -7z m43 -63 c0 -5 -7 -10 -15 -10 -8 0 -15 5 -15 10
0 6 7 10 15 10 8 0 15 -4 15 -10z"/>
<path d="M2472 958 c-7 -7 -12 -27 -12 -45 0 -38 26 -57 65 -47 35 9 31 24 -6
24 -27 0 -30 3 -27 28 3 23 7 27 32 24 26 -3 28 -1 17 12 -16 19 -52 21 -69 4z"/>
<path d="M2570 920 c0 -38 4 -50 15 -50 11 0 15 12 15 50 0 38 -4 50 -15 50
-11 0 -15 -12 -15 -50z"/>
<path d="M2630 951 c-17 -32 -12 -60 15 -77 25 -16 63 -12 77 10 12 17 9 61
-4 74 -20 20 -76 15 -88 -7z m65 -32 c0 -15 -7 -25 -18 -27 -22 -4 -33 24 -17
43 18 21 35 13 35 -16z"/>
<path d="M2750 919 c0 -37 4 -49 15 -49 10 0 15 10 15 28 0 27 15 52 32 52 4
0 8 -18 8 -40 0 -33 3 -40 20 -40 16 0 20 7 20 31 0 53 -15 68 -65 67 l-45 -1
0 -48z"/>
<path d="M2885 960 c-7 -11 0 -13 27 -11 30 3 28 -16 -2 -23 -62 -12 -46 -67
18 -62 35 3 37 6 40 40 2 21 -2 44 -9 52 -13 16 -65 19 -74 4z m50 -60 c-3 -5
-13 -10 -21 -10 -8 0 -12 5 -9 10 3 6 13 10 21 10 8 0 12 -4 9 -10z"/>
<path d="M3242 958 c-6 -6 -12 -27 -12 -45 0 -38 26 -57 65 -47 31 8 23 24
-13 24 -27 1 -26 1 6 15 26 11 33 20 30 37 -2 17 -11 24 -33 26 -17 2 -36 -3
-43 -10z m48 -17 c0 -12 -20 -25 -27 -18 -7 7 6 27 18 27 5 0 9 -4 9 -9z"/>
<path d="M395 930 c-3 -6 1 -7 9 -4 18 7 21 14 7 14 -6 0 -13 -4 -16 -10z"/>
<path d="M366 915 c4 -8 8 -15 10 -15 2 0 4 7 4 15 0 8 -4 15 -10 15 -5 0 -7
-7 -4 -15z"/>
<path d="M192 889 c1 -17 4 -25 8 -18 7 10 2 49 -5 49 -2 0 -3 -14 -3 -31z"/>
<path d="M643 868 c12 -13 24 -19 26 -15 1 5 -5 15 -15 22 -29 22 -36 17 -11
-7z"/>
<path d="M310 850 c0 -6 7 -10 15 -10 8 0 15 2 15 4 0 2 -7 6 -15 10 -8 3 -15
1 -15 -4z"/>
<path d="M256 832 c-3 -5 4 -16 15 -25 10 -9 19 -12 19 -7 0 6 -7 13 -15 16
-8 4 -12 10 -9 15 3 5 3 9 0 9 -3 0 -7 -4 -10 -8z"/>
<path d="M316 804 c-5 -14 -4 -15 9 -4 17 14 19 20 6 20 -5 0 -12 -7 -15 -16z"/>
<path d="M460 816 c0 -2 7 -9 15 -16 9 -7 15 -8 15 -2 0 5 -7 12 -15 16 -8 3
-15 4 -15 2z"/>
<path d="M554 793 c4 -8 2 -13 -5 -13 -8 0 -9 -3 -3 -9 5 -5 34 -11 64 -14 34
-3 47 -2 35 3 -11 5 -29 9 -39 9 -11 1 -28 9 -39 19 -11 9 -17 11 -13 5z"/>
<path d="M2026 783 c-3 -3 -6 -32 -6 -64 0 -50 -3 -57 -22 -63 -17 -4 -20 -8
-11 -17 7 -7 22 -9 37 -5 25 6 26 10 26 76 0 64 -8 89 -24 73z"/>
<path d="M2555 780 c-3 -6 1 -13 10 -16 19 -8 30 0 20 15 -8 14 -22 14 -30 1z"/>
<path d="M2610 722 c0 -67 10 -92 37 -92 7 0 13 7 13 15 0 8 -4 15 -10 15 -6
0 -10 28 -10 65 0 51 -3 65 -15 65 -12 0 -15 -14 -15 -68z"/>
<path d="M446 767 c2 -7 14 -19 27 -26 21 -13 21 -12 -2 13 -27 29 -33 32 -25
13z"/>
<path d="M1186 758 c-45 -64 11 -146 84 -123 32 10 18 30 -18 27 -40 -4 -59
28 -43 71 10 26 14 27 48 21 35 -7 37 -6 24 9 -20 25 -76 22 -95 -5z"/>
<path d="M1560 756 c0 -8 -6 -16 -12 -19 -10 -3 -10 -7 -1 -18 6 -8 13 -30 15
-49 3 -30 7 -35 31 -38 19 -2 27 1 27 12 0 9 -7 16 -15 16 -10 0 -15 10 -15
30 0 20 5 30 15 30 8 0 15 5 15 10 0 6 -6 10 -14 10 -8 0 -16 7 -20 15 -7 19
-26 20 -26 1z"/>
<path d="M229 708 c4 -28 6 -29 9 -9 2 13 0 27 -5 32 -6 6 -7 -3 -4 -23z"/>
<path d="M1316 718 c-21 -29 -20 -51 2 -71 20 -18 49 -22 71 -8 9 6 10 11 2
15 -6 4 -15 4 -21 1 -5 -3 -15 -3 -21 1 -7 4 1 12 20 20 32 14 39 32 19 52
-19 19 -55 14 -72 -10z m54 -19 c0 -5 -10 -9 -21 -9 -18 0 -19 2 -9 15 12 15
30 12 30 -6z"/>
<path d="M1420 684 c0 -41 4 -54 15 -54 10 0 15 10 15 34 0 33 20 62 33 49 4
-3 7 -24 7 -45 0 -28 4 -38 16 -38 12 0 14 10 12 53 l-3 52 -47 1 -48 2 0 -54z"/>
<path d="M1640 683 c0 -40 4 -53 15 -53 11 0 15 11 15 40 0 33 3 40 20 40 11
0 20 6 20 14 0 10 -11 14 -35 13 l-35 -1 0 -53z"/>
<path d="M1738 729 c-25 -14 -24 -75 1 -89 45 -23 91 -1 91 45 0 46 -50 69
-92 44z m62 -43 c0 -22 -22 -37 -37 -25 -17 14 -17 46 0 52 15 5 37 -11 37
-27z"/>
<path d="M1863 734 c-22 -9 -14 -44 12 -56 14 -6 25 -15 25 -21 0 -5 -11 -6
-25 -3 -27 7 -36 -11 -10 -20 52 -20 90 35 40 58 -29 13 -33 31 -7 26 11 -2
20 2 21 7 2 11 -37 17 -56 9z"/>
<path d="M2080 690 c0 -27 3 -51 8 -51 4 -1 26 -3 50 -4 l43 -3 -3 51 c-3 59
-28 80 -28 24 0 -33 -20 -64 -33 -50 -4 3 -7 24 -7 45 0 27 -4 38 -15 38 -11
0 -15 -12 -15 -50z"/>
<path d="M2200 732 c0 -5 7 -29 16 -55 19 -55 40 -60 58 -14 26 62 28 77 12
77 -8 0 -17 -13 -21 -30 -9 -43 -22 -45 -29 -5 -4 21 -13 35 -21 35 -8 0 -15
-4 -15 -8z"/>
<path d="M2326 724 c-34 -33 -9 -94 37 -94 29 0 53 15 38 24 -6 4 -15 4 -21 1
-5 -3 -17 -2 -26 3 -13 7 -10 10 15 15 36 7 49 30 31 52 -16 20 -54 19 -74 -1z
m49 -25 c-8 -12 -35 -12 -35 0 0 11 22 20 33 14 4 -2 5 -9 2 -14z"/>
<path d="M2430 683 c0 -40 4 -53 15 -53 11 0 15 11 15 39 0 24 5 41 14 44 20
8 26 -2 26 -45 0 -27 4 -38 15 -38 11 0 15 12 15 44 0 52 -12 65 -62 63 l-38
-1 0 -53z"/>
<path d="M2560 685 c0 -42 3 -55 15 -55 12 0 15 13 15 55 0 42 -3 55 -15 55
-12 0 -15 -13 -15 -55z"/>
<path d="M2690 725 c-29 -35 -7 -95 34 -95 29 0 52 15 37 24 -6 4 -15 4 -21 1
-5 -3 -15 -3 -21 1 -7 4 1 12 20 20 20 8 31 20 31 32 0 33 -57 44 -80 17z m50
-26 c0 -5 -7 -9 -15 -9 -15 0 -20 12 -9 23 8 8 24 -1 24 -14z"/>
<path d="M2802 728 c-19 -19 -14 -37 13 -50 33 -15 32 -32 -1 -24 -19 5 -25 3
-22 -6 3 -7 19 -14 36 -16 39 -4 61 27 36 52 -8 9 -22 16 -30 16 -8 0 -14 5
-14 11 0 5 8 9 18 7 11 -2 20 2 21 7 3 15 -42 18 -57 3z"/>
<path d="M720 705 c13 -14 26 -25 28 -25 3 0 -5 11 -18 25 -13 14 -26 25 -28
25 -3 0 5 -11 18 -25z"/>
<path d="M510 711 c0 -6 4 -13 10 -16 6 -3 7 1 4 9 -7 18 -14 21 -14 7z"/>
<path d="M682 669 c6 -16 12 -28 14 -26 5 5 -13 57 -20 57 -3 0 0 -14 6 -31z"/>
<path d="M710 676 c0 -2 8 -10 18 -17 15 -13 16 -12 3 4 -13 16 -21 21 -21 13z"/>
<path d="M241 644 c0 -11 3 -14 6 -6 3 7 2 16 -1 19 -3 4 -6 -2 -5 -13z"/>
<path d="M545 630 c4 -14 8 -25 9 -25 0 0 12 -9 25 -20 23 -18 22 -17 -4 20
-39 54 -38 53 -30 25z"/>
<path d="M702 610 c0 -14 2 -19 5 -12 2 6 2 18 0 25 -3 6 -5 1 -5 -13z"/>
<path d="M261 544 c0 -11 3 -14 6 -6 3 7 2 16 -1 19 -3 4 -6 -2 -5 -13z"/>
<path d="M638 538 c6 -6 18 -8 28 -6 14 3 12 5 -9 10 -19 3 -25 2 -19 -4z"/>
<path d="M648 513 c7 -3 16 -2 19 1 4 3 -2 6 -13 5 -11 0 -14 -3 -6 -6z"/>
<path d="M1203 503 c-16 -6 -18 -113 -3 -113 6 0 10 9 10 20 0 13 7 20 18 20
41 0 57 51 23 70 -21 11 -29 11 -48 3z m42 -34 c0 -7 -8 -15 -17 -17 -18 -3
-25 18 -11 32 10 10 28 1 28 -15z"/>
<path d="M1303 504 c-20 -9 -17 -114 2 -114 9 0 15 9 15 25 0 14 5 25 10 25 6
0 15 -11 20 -25 5 -14 14 -25 20 -25 13 0 13 16 0 40 -7 13 -7 21 0 25 33 20
-29 65 -67 49z m42 -34 c0 -7 -6 -15 -12 -17 -8 -3 -13 4 -13 17 0 13 5 20 13
18 6 -3 12 -11 12 -18z"/>
<path d="M1427 503 c-27 -7 -40 -49 -25 -81 15 -30 60 -42 84 -21 22 18 18 75
-8 93 -12 9 -25 15 -28 15 -3 -1 -13 -3 -23 -6z m43 -27 c6 -8 10 -25 8 -38
-2 -17 -10 -23 -28 -23 -18 0 -26 6 -28 23 -3 22 13 52 28 52 4 0 13 -7 20
-14z"/>
<path d="M1527 504 c-4 -4 -7 -31 -7 -61 0 -40 4 -53 15 -53 10 0 15 10 15 33
l1 32 27 -33 c15 -18 30 -32 35 -32 4 0 7 25 7 55 0 30 -4 55 -10 55 -5 0 -10
-15 -10 -32 l0 -33 -33 38 c-18 21 -35 35 -40 31z"/>
<path d="M1665 474 c-30 -72 -31 -109 -1 -69 10 13 14 13 40 0 16 -9 31 -14
32 -12 7 7 -28 96 -41 107 -11 9 -17 4 -30 -26z m35 -30 c0 -8 -7 -14 -15 -14
-17 0 -18 2 -9 24 7 18 24 12 24 -10z"/>
<path d="M1771 493 c-24 -16 -29 -71 -9 -91 15 -15 64 -16 73 -2 4 6 -6 10
-24 10 -24 0 -32 5 -37 25 -8 31 12 58 37 50 11 -4 19 -2 19 3 0 17 -38 20
-59 5z"/>
<path d="M1970 462 c0 -40 -4 -52 -15 -52 -8 0 -15 -5 -15 -11 0 -6 10 -9 23
-7 19 3 22 10 25 52 2 27 -2 54 -7 59 -8 8 -11 -4 -11 -41z"/>
<path d="M1860 445 l0 -55 35 0 c19 0 35 5 35 10 0 6 -11 10 -25 10 -16 0 -25
6 -25 15 0 8 9 15 20 15 11 0 20 5 20 10 0 6 -9 10 -20 10 -30 0 -24 28 8 33
22 3 20 4 -10 6 l-38 1 0 -55z"/>
<path d="M285 445 c12 -72 34 -142 49 -154 11 -9 10 -2 -4 26 -10 21 -23 65
-29 97 -6 33 -14 62 -17 65 -3 3 -3 -12 1 -34z"/>
<path d="M374 266 c11 -9 31 -16 45 -15 24 1 24 2 -5 8 -17 4 -37 11 -45 15
-8 4 -5 0 5 -8z"/>
</g>
</svg>
